<svg xmlns="http://www.w3.org/2000/svg" viewBox="0 0 83.93 84"><defs><style>.cls-1{fill:#777;}</style></defs><g id="Layer_2" data-name="Layer 2"><g id="Layer_2-2" data-name="Layer 2"><g id="Why_Choose" data-name="Why Choose"><g id="Right"><path class="cls-1" d="M68.5,9.43V4.35c0-.39,0-.77,0-1.16a2,2,0,0,1,2-1.93,2,2,0,0,1,2,1.94c0,1.3,0,2.61,0,3.92,0,2.17,0,4.34,0,6.51A2.08,2.08,0,0,1,70.17,16H60.09a2,2,0,1,1,0-4,44.41,44.41,0,0,0,4.85-.2c-.59-.43-1.16-.88-1.76-1.28A37.09,37.09,0,0,0,45,4.19,37.11,37.11,0,0,0,14.94,15.35,36,36,0,0,0,4.38,36.8C2.81,49,6.38,59.64,14.85,68.59a2.12,2.12,0,0,1,.76,2.23,2,2,0,0,1-3.43.74,39,39,0,0,1-4.22-5A42,42,0,0,1,23.64,4.22a41.89,41.89,0,0,1,44.1,4.66ZM20.76,45.64a15.67,15.67,0,0,0,3.88-3.52,6.65,6.65,0,0,0,0-7.91,7.06,7.06,0,0,0-6.79-2.72A7.71,7.71,0,0,0,11.58,36a1.66,1.66,0,0,0-.1,1.22,1.94,1.94,0,0,0,1.59,1.5,1.88,1.88,0,0,0,2-.95,4.24,4.24,0,0,1,2.75-2.23,3.49,3.49,0,0,1,3.78,1.33c.59,1,.28,2.39-.81,3.57-.17.17-.35.32-.53.48A21.15,21.15,0,0,1,18,42.69a32.14,32.14,0,0,0-4.48,3.39,6.65,6.65,0,0,0-2.05,3.86,2.13,2.13,0,0,0,2.25,2.63H23.85a2,2,0,0,0,2-1.28,1.86,1.86,0,0,0-.46-2.13,2.23,2.23,0,0,0-1.71-.6c-2.22,0-4.45,0-6.94,0C18.12,47.36,19.47,46.54,20.76,45.64Zm19.78-8.57c0-1.48,0-3,0-4.46a2.06,2.06,0,0,0-1.43-2.14,2,2,0,0,0-2.33.86L27.46,43a2,2,0,0,0-.35,2.32,2,2,0,0,0,2,1.08c2,0,4.11,0,6.16,0,1.28,0,1.28,0,1.28,1.33s0,2.62,0,3.93a1.9,1.9,0,0,0,1.23,1.88,2,2,0,0,0,2.75-2c.06-1.22,0-2.44,0-3.66,0-1.57-.08-1.51,1.4-1.51a2,2,0,0,0,2-1.78,2,2,0,0,0-1.65-2.12,3.25,3.25,0,0,0-.88-.09c-.66,0-.89-.26-.88-.9,0-1.45,0-2.91,0-4.37Zm-4,4.72c0,.44-.29.54-.66.54H33.1l3.24-4.06.2.08ZM61.25,31.42c-1.42,0-2.37.84-2.36,2a2.12,2.12,0,0,0,2.38,2c1.7,0,3.4,0,5.09,0,1.13,0,1.14,0,.7,1.08q-2.72,6.49-5.41,13a2,2,0,1,0,3.67,1.57q3.47-8.31,6.92-16.63c.71-1.73-.18-3-2.07-3-1.49,0-3,0-4.46,0S62.73,31.41,61.25,31.42ZM54.69,30a1.85,1.85,0,0,0-1.93-.6,2.08,2.08,0,0,0-1.55,1.78q-.68,3.41-1.36,6.81c-.94,4.75-1.9,9.5-2.83,14.25a2,2,0,1,0,3.88.9c.08-.29.14-.58.2-.87q1.49-7.47,3-14.94.6-3,1.18-5.94A2.07,2.07,0,0,0,54.69,30ZM37.31,81.7a2,2,0,0,0-1.52-2.22c-1.26-.3-2.54-.57-3.82-.81a2,2,0,0,0-1,3.81,28.76,28.76,0,0,0,4.12.93A2.09,2.09,0,0,0,37.31,81.7ZM83.93,43.33A2,2,0,0,0,82,41c-1.25,0-2,.81-2.08,2.26,0,1.06-.17,2.13-.24,3.19a2.07,2.07,0,0,0,1.78,2.29,2,2,0,0,0,2.14-1.71c.18-1.11.25-2.24.34-3.13ZM26.41,78.46a2,2,0,0,0-.93-2.22c-1.08-.63-2.18-1.22-3.29-1.79a1.94,1.94,0,0,0-2.76.74,2,2,0,0,0,.85,2.74c1,.59,2,1.13,3,1.69a2.48,2.48,0,0,0,1.19.31A1.93,1.93,0,0,0,26.41,78.46Zm48-56.39c.55,1.18,1.19,2.32,1.85,3.45a2,2,0,0,0,3.5-1.85c-.58-1.2-1.25-2.36-1.92-3.51a1.74,1.74,0,0,0-1.64-.89A1.91,1.91,0,0,0,74.36,22.07Zm5.21,14.07a1.86,1.86,0,0,0,2.14,1.22,1.92,1.92,0,0,0,1.66-1.93,15.93,15.93,0,0,0-1.06-4.67,1.83,1.83,0,0,0-2.16-1A2.06,2.06,0,0,0,78.62,32C78.89,33.19,79.16,34.69,79.57,36.14Zm.93,16.14a1.9,1.9,0,0,0-2.27,1.12c-.53,1.26-1,2.54-1.43,3.83a2,2,0,0,0,.92,2.29A1.89,1.89,0,0,0,80.2,59,16.67,16.67,0,0,0,82,54.52,2,2,0,0,0,80.5,52.28ZM59,80.27a2,2,0,0,0,.53-2.34,1.87,1.87,0,0,0-2.2-1.1c-1.39.44-2.76,1-4.09,1.52a1.88,1.88,0,0,0-1,2.17,1.93,1.93,0,0,0,2,1.51A16.41,16.41,0,0,0,59,80.27ZM75.81,62.6a1.81,1.81,0,0,0-2.19.48,42,42,0,0,0-2.55,3.41,2,2,0,0,0,2.15,2.91c1.13-.3,3.79-3.82,3.78-5A1.78,1.78,0,0,0,75.81,62.6ZM47,83.63a1.92,1.92,0,0,0,1.66-2.16,2,2,0,0,0-2.19-1.75c-1.21.07-2.42.14-3.63.25a1.88,1.88,0,0,0-1.75,1.29,1.92,1.92,0,0,0,.48,2.13,2.6,2.6,0,0,0,2,.61C44.71,83.88,45.86,83.81,47,83.63Zm18.41-6.85a21.64,21.64,0,0,0,3.14-2.33,2,2,0,1,0-2.46-3.11c-1,.69-1.91,1.42-2.86,2.13a1.9,1.9,0,0,0-.83,1.68A2,2,0,0,0,65.41,76.78Z"/></g></g></g></g></svg>