<svg xmlns="http://www.w3.org/2000/svg" viewBox="0 0 84 84"><defs><style>.cls-1{fill:#777;}</style></defs><g id="Layer_2" data-name="Layer 2"><g id="Layer_2-2" data-name="Layer 2"><g id="Why_Choose" data-name="Why Choose"><g id="Right"><path class="cls-1" d="M18.69,0a9.61,9.61,0,0,1,6.18,4.24,10.49,10.49,0,0,1,.8,1.61.9.9,0,0,0,1,.66c1.33,0,2.67,0,4,0,.6,0,.9.14.88.82-.05,2.29.26,1.89-1.89,1.93-.87,0-1.75,0-2.62,0-.5,0-.73.13-.76.68a8.76,8.76,0,0,1-2.69,5.81c-.41.41-.53.61.11.87a9.28,9.28,0,0,1,2.42,1.63c0-.22.05-.32.06-.43.07-1.89.3-2.11,2.16-2.11H48c1.52,0,1.9.38,1.9,1.88V34.93c0,1.45-.4,1.84-1.84,1.85-.85,0-1.7,0-2.54,0s-.88.35-.87,1a6.43,6.43,0,0,1-3.85,6.31,6,6,0,0,1-2.7.59H27.19c-.3,0-.7-.16-.86.26s.13.61.35.85c3,3.37,6,6.76,9,10.1A3.86,3.86,0,0,1,36.8,58.7c0,7.78,0,15.56,0,23.35,0,1.57-.37,1.94-1.92,1.94-2.35,0-4.7,0-7,0-1.17,0-1.63-.46-1.64-1.64,0-5.9,0-11.8,0-17.7a1.69,1.69,0,0,0-.78-1.57c-1.38-1-2.72-2-4.07-3-.74-.55-.81-.53-.94.41-.17,1.38-.37,2.76-.5,4.14a5.59,5.59,0,0,1-.84,2.53c-3.2,5.17-6.39,10.37-9.58,15.55-.93,1.52-1.47,1.66-3,.76-1.83-1.1-3.65-2.2-5.49-3.29a5.68,5.68,0,0,1-1-.81V78a2.54,2.54,0,0,0,.23-.34C2.69,72.79,5.14,67.87,7.6,63a2.51,2.51,0,0,0,.21-1.2c0-4.18,0-8.36,0-12.54a2.78,2.78,0,0,0-.41-1.46,16.6,16.6,0,0,1-2.22-8.29c0-4.89,0-9.78,0-14.67a8.86,8.86,0,0,1,5-8.12c.65-.36.78-.48.19-1.07a9.21,9.21,0,0,1,0-12.92,10.34,10.34,0,0,1,5-2.7ZM28.91,71.79c0,2.84,0,5.68,0,8.52,0,.78.25,1,1,1,1.09-.06,2.19,0,3.28,0,.67,0,.9-.19.89-.87q0-10.69,0-21.4a1.7,1.7,0,0,0-.48-1.24c-3-3.4-6.06-6.82-9.1-10.22a2.61,2.61,0,0,1-.92-2.25c.1-.59-.23-.79-.73-1A6.5,6.5,0,0,1,18.3,38c0-3.36,0-6.72,0-10.08,0-1.93-.26-1.65,1.69-1.72.83,0,1.07.24,1.06,1.06,0,3.5,0,7,0,10.49a3.91,3.91,0,0,0,4.07,4.19c4.23,0,8.47,0,12.7,0a4,4,0,0,0,4.1-4.1c0-.76-.16-1-1-1-4.32,0-8.64,0-12.95,0-1.41,0-1.82-.41-1.82-1.8,0-3.22,0-6.45,0-9.67s-1.82-5.91-4.68-6.55a23.62,23.62,0,0,0-8.79-.05,3.31,3.31,0,0,0-.85.3A6.48,6.48,0,0,0,7.94,25.3c0,4.61,0,9.23,0,13.85a15.22,15.22,0,0,0,.22,2.52,14.48,14.48,0,0,0,5.89,9.41c4.64,3.46,9.26,7,13.9,10.41a2.15,2.15,0,0,1,1,1.94C28.88,66.21,28.91,69,28.91,71.79ZM38,34c2.79,0,5.57,0,8.36,0,.57,0,.83-.14.83-.77,0-4.7,0-9.39,0-14.09,0-.63-.24-.8-.83-.78-1.17,0-2.35,0-3.52,0-.6,0-.82.18-.81.8,0,1.82,0,3.65,0,5.48,0,1.12-.48,1.59-1.61,1.59H35.67c-1.17,0-1.62-.47-1.63-1.65,0-1.8,0-3.61,0-5.41,0-.59-.17-.83-.79-.81-1.17,0-2.35,0-3.52,0-.65,0-.84.21-.84.85q0,7,0,13.92c0,.69.23.88.89.87C32.52,34,35.25,34,38,34ZM10.55,51.94v1c0,3.11,0,6.22,0,9.34a4.34,4.34,0,0,1-.49,2c-2.2,4.36-4.36,8.74-6.57,13.1-.28.56-.22.86.34,1.16.93.51,1.85,1,2.73,1.64.63.43.95.32,1.34-.32,2.89-4.75,5.82-9.49,8.74-14.23a2.7,2.7,0,0,0,.41-1.14c.26-2.16.52-4.33.81-6.49a.85.85,0,0,0-.39-.9ZM17,9.24c-1.91,0-3.82,0-5.73,0-.53,0-.71.11-.65.7a6.44,6.44,0,0,0,12.8,0c.06-.62-.13-.75-.69-.74C20.85,9.25,18.94,9.24,17,9.24Zm0-2.74c1.72,0,3.44,0,5.16,0,.53,0,.65-.15.37-.61A6.28,6.28,0,0,0,17,2.72a6.24,6.24,0,0,0-5.5,3.14c-.32.51-.16.65.39.65C13.63,6.49,15.35,6.5,17.07,6.5ZM39.29,21v-.9c0-1.95.38-1.7-1.84-1.73-.49,0-.69.18-.68.67,0,.9,0,1.81,0,2.71,0,2-.41,1.74,1.87,1.76.45,0,.65-.17.64-.63C39.27,22.3,39.28,21.67,39.29,21Zm44-21A2.15,2.15,0,0,1,84,1.82Q84,42,84,82.12C84,83.61,83.6,84,82.08,84H56.92c-1.51,0-1.9-.38-1.9-1.88V47.2c0-1.18.17-1.26-1.16-1.25a1.31,1.31,0,0,1-1.45-1.49q0-3.81,0-7.62c0-1,.5-1.46,1.54-1.49s1.07,0,1.07-1.08Q55,18,55,1.82A2.13,2.13,0,0,1,55.74,0ZM57.76,63.52c0,5.6,0,11.2,0,16.8,0,.69.17,1,.91,1,7.24,0,14.48,0,21.71,0,.68,0,.9-.19.9-.88q0-12.66,0-25.32a1.49,1.49,0,0,0-.46-1.16q-4-4-8-8a.93.93,0,0,0-1.15-.29,5.92,5.92,0,0,1-2.33.35c-3.52,0-7,0-10.57,0-.81,0-1,.25-1,1C57.78,52.49,57.76,58,57.76,63.52Zm18.37-40h4c1.09,0,1.09,0,1.09-1.06,0-6.26,0-12.51,0-18.77,0-.83-.22-1.06-1-1.06-7.13,0-14.26,0-21.39,0-1.07,0-1.07,0-1.07,1.09V34.26c0,.11,0,.22,0,.33-.06.55.16.78.74.77,2.1,0,4.21,0,6.31,0,.54,0,.72-.2.71-.72,0-1.53,0-3.06,0-4.59a5.58,5.58,0,0,1,1-3.33c.48-.67.29-.83-.39-1.09a9.22,9.22,0,0,1-5.69-10.38,9.26,9.26,0,0,1,18.33,1.22A9.69,9.69,0,0,1,76.13,23.55Zm5.08,26.67c0-.1,0-.2,0-.3q0-11.45,0-22.87c0-.64-.26-.78-.83-.77-2.59,0-5.19,0-7.78,0-2.79,0-4.38,1.59-4.39,4.37,0,1.86,0,3.72,0,5.58,0,1.45-.39,1.85-1.84,1.85-3.44,0-6.88,0-10.33,0-.77,0-1,.25-.95,1,0,1.14,0,2.29,0,3.44,0,.52.17.73.71.73,4.51,0,9,0,13.52,0a3.89,3.89,0,0,0,4-4.07c0-1.07,0-2.13,0-3.2,0-2.16-.37-1.84,1.91-1.9.68,0,.84.27.83.87,0,1.42,0,2.85,0,4.27a6.2,6.2,0,0,1-1.24,4c-.36.48-.21.72.15,1.07,1.89,1.86,3.75,3.75,5.63,5.61C80.81,50,80.92,50.21,81.21,50.22ZM68,18.3c1.67,0,1.73.08,1.37,1.59a6.11,6.11,0,0,1-1.47,2.8c-.33.36-.27.57.19.65a6.63,6.63,0,0,0,1.46.18,6.45,6.45,0,0,0,6.3-7.37,6.16,6.16,0,0,0-4.47-5.25A6.09,6.09,0,0,0,64.5,13a6.11,6.11,0,0,0-.82,6.76c.3.67.61,1.72,1.38,1.64s1.4-1.09,1.53-1.95C66.74,18.4,67.23,18.11,68,18.3ZM31.42,30.05c0,1.48,0,1.49,1.26,1.48,1.58,0,1.47.16,1.47-1.34s0-1.4-1.34-1.4S31.42,28.79,31.42,30.05Z"/></g></g></g></g></svg>