<svg xmlns="http://www.w3.org/2000/svg" viewBox="0 0 84 84"><defs><style>.cls-1{fill:#777;}</style></defs><g id="Layer_2" data-name="Layer 2"><g id="Layer_2-2" data-name="Layer 2"><g id="Why_Choose" data-name="Why Choose"><g id="Right"><path class="cls-1" d="M84,31.81c-1,2.45-2.29,3.29-5,3.29H74.68a4.51,4.51,0,0,1-4.23-2.31.76.76,0,0,0-.7-.47,17.1,17.1,0,0,1-2.37-.11c-.52-.08-.44.25-.33.56a25.65,25.65,0,0,1,1.12,3.94,26.48,26.48,0,0,1-4.53,20.92c-.16.23-.44.41-.43.86,1.22-.4,2.39-.81,3.59-1.16a4.78,4.78,0,0,1,3.64,8.77c-3.06,1.9-6.16,3.76-9.23,5.63-4.2,2.56-8.42,5.1-12.59,7.69a11.52,11.52,0,0,1-6.36,1.8c-9.1,0-18.2,0-27.29,0a1.47,1.47,0,0,0-1.52.78,4,4,0,0,1-3.62,2C8,84,6.11,84,4.25,84A4.13,4.13,0,0,1,0,79.74q0-13.2,0-26.39a4.24,4.24,0,0,1,4.23-4.49c1.89-.08,3.78-.07,5.66,0a4.19,4.19,0,0,1,3.68,2.23,1,1,0,0,0,.92.53,15.89,15.89,0,0,1,2,.09c.6.08.74-.07.52-.65a25,25,0,0,1-1.4-5.79,26.48,26.48,0,0,1,4.91-19c.14-.21.42-.36.33-.78-1.15.38-2.27.79-3.41,1.13a4.79,4.79,0,0,1-3.69-8.8q6.54-4,13.09-8C29.88,7.93,33,6.05,36,4.18a9.76,9.76,0,0,1,5.21-1.45c9.29,0,18.58,0,27.87,0a1.44,1.44,0,0,0,1.5-.82A4.35,4.35,0,0,1,73.18,0h7.7A4.78,4.78,0,0,1,84,3.11ZM18.3,41.72A24.22,24.22,0,0,0,20.59,52a1.43,1.43,0,0,0,.64.81,29.36,29.36,0,0,1,4.15,2.63,9.66,9.66,0,0,0,5.92,1.8,58.7,58.7,0,0,1,6.63.08A7.62,7.62,0,0,1,44.85,64c.07.71.42.54.82.41l10.26-3.44a3.21,3.21,0,0,0,.86-.45c8.53-6.45,11.45-19.19,6.6-28.74a1.08,1.08,0,0,0-.52-.61,29.55,29.55,0,0,1-4.49-2.84,8.85,8.85,0,0,0-5.23-1.6c-2.35,0-4.7.09-7-.07-3.35-.23-6.65-3.24-6.88-6.43-.06-.81-.33-.8-.95-.59-3.33,1.13-6.68,2.24-10,3.35a3.78,3.78,0,0,0-1.21.67A23.58,23.58,0,0,0,18.3,41.72Zm36.44-36c-4.43,0-8.86,0-13.28,0A7.72,7.72,0,0,0,37.27,6.9q-8.12,5-16.24,9.9c-2,1.2-3.92,2.38-5.87,3.6a1.79,1.79,0,0,0,1.33,3.32c.29-.06.57-.16.86-.25q11.49-3.86,23-7.71a9.92,9.92,0,0,1,3.14-.5h8.77a11.56,11.56,0,0,0,2.2-.13,10.4,10.4,0,0,0,4.24-1.88,1.45,1.45,0,0,1,1.69-.13,1.38,1.38,0,0,1,.71,1.3,1.65,1.65,0,0,1-.81,1.35,12.38,12.38,0,0,1-7.16,2.48c-3.11.05-6.23,0-9.34,0-1.23,0-1.58.37-1.56,1.61a2.82,2.82,0,0,0,.54,1.6,5.26,5.26,0,0,0,4.43,2.25c2.18,0,4.37,0,6.55,0a10,10,0,0,1,4.5,1.08,34.44,34.44,0,0,1,4,2.56A10.77,10.77,0,0,0,68.8,29.3c1.08,0,1.08,0,1.08-1.1V6.89c0-1.15,0-1.16-1.13-1.16ZM29.32,78.21c4.42,0,8.85,0,13.27,0A7.64,7.64,0,0,0,46.78,77q8.91-5.45,17.84-10.87c1.45-.88,2.9-1.75,4.33-2.66a1.79,1.79,0,0,0,.8-2.27,1.73,1.73,0,0,0-2.08-1,6.37,6.37,0,0,0-1,.26q-11.3,3.78-22.59,7.58a12,12,0,0,1-3.94.64c-2.73,0-5.46,0-8.19,0a10.33,10.33,0,0,0-6.54,2,1.49,1.49,0,1,1-1.72-2.4A12.23,12.23,0,0,1,31,65.7c3.06,0,6.12,0,9.18,0,1.31,0,1.67-.39,1.61-1.71A3,3,0,0,0,41,62.07a5.26,5.26,0,0,0-4-1.84c-2.23,0-4.47,0-6.71,0a9.71,9.71,0,0,1-4.27-1,32.56,32.56,0,0,1-4.15-2.62,10.71,10.71,0,0,0-6.55-2c-1.07,0-1.07,0-1.07,1.11q0,10.65,0,21.3c0,1.15,0,1.16,1.13,1.16ZM72.9,17.43V30.29c0,1.33.45,1.79,1.76,1.79h4.59c1.41,0,1.89-.45,1.89-1.84q0-12.8,0-25.57c0-1.32-.52-1.81-1.87-1.82s-3,0-4.5,0-1.87.47-1.87,1.87Zm-61.74,49V53.55c0-1.21-.48-1.69-1.69-1.69H4.71c-1.3,0-1.79.47-1.79,1.78q0,12.82,0,25.65c0,1.28.52,1.79,1.8,1.8q2.3,0,4.59,0c1.4,0,1.85-.48,1.85-1.88ZM43.54,37.27c0,.77.05,1.54,0,2.3s.2,1.07.94,1.2A8.19,8.19,0,0,1,47.56,42c4,2.6,3.9,7.44-.22,9.86a8,8,0,0,1-2.9,1.1c-.73.11-1,.44-.9,1.14a1.07,1.07,0,0,1,0,.25A1.57,1.57,0,0,1,42,56a1.48,1.48,0,0,1-1.45-1.65c.05-1-.29-1.32-1.22-1.5a7.81,7.81,0,0,1-4.19-2.27,5.28,5.28,0,0,1-1.56-3.43,1.48,1.48,0,1,1,2.93-.35A4.23,4.23,0,0,0,40.13,50c.39,0,.38-.24.38-.48,0-1.89,0-3.77,0-5.66,0-.61-.47-.59-.85-.67a8.67,8.67,0,0,1-4.5-2.36,5.25,5.25,0,0,1,0-7.57A8.57,8.57,0,0,1,39.69,31c.63-.13.91-.41.83-1.05a2.4,2.4,0,0,1,0-.65,1.54,1.54,0,0,1,1.5-1.36,1.38,1.38,0,0,1,1.41,1.34c-.12,1.38.59,1.69,1.74,1.95A7.17,7.17,0,0,1,49,33.38a5.28,5.28,0,0,1,1.51,3.54,1.49,1.49,0,0,1-1.38,1.63,1.51,1.51,0,0,1-1.55-1.38A4.16,4.16,0,0,0,44,33.93c-.51,0-.45.26-.46.56Zm-3-.19c0-.87,0-1.74,0-2.61,0-.5-.18-.63-.64-.5a5.67,5.67,0,0,0-2.56,1.38,2.25,2.25,0,0,0,0,3.41,5.65,5.65,0,0,0,2.39,1.36c.59.2.87.1.84-.59S40.52,37.9,40.52,37.08Zm3,9.74c0,.87,0,1.75,0,2.62,0,.55.21.66.69.52a5.54,5.54,0,0,0,2.55-1.41,2.23,2.23,0,0,0,.07-3.29,5.54,5.54,0,0,0-2.75-1.51c-.52-.14-.55.18-.55.54ZM60,44.12a8,8,0,0,1-.23,1.37A17.92,17.92,0,0,1,48.1,59c-1.11.43-1.54,1.11-1.25,2s1.15,1.23,2.29.83a20.28,20.28,0,0,0,7.47-4.63,20.9,20.9,0,0,0,6.42-17,19.15,19.15,0,0,0-1.56-6.25,1.44,1.44,0,0,0-1.63-1,1.46,1.46,0,0,0-1.22,1.17,1.89,1.89,0,0,0,.22,1.19A15.52,15.52,0,0,1,60,41.91C60,42.65,60,43.39,60,44.12Zm-38.83.81a20.82,20.82,0,0,0,1.39,5,1.48,1.48,0,0,0,2,1,1.51,1.51,0,0,0,.8-2l-.21-.53a16.73,16.73,0,0,1-1-8.7c1.05-7.1,5-12,11.67-14.68a4.36,4.36,0,0,0,.82-.37,1.34,1.34,0,0,0,.63-1.55,1.44,1.44,0,0,0-1.35-1.13,2.42,2.42,0,0,0-1,.23A21,21,0,0,0,21,42.14,15.58,15.58,0,0,0,21.16,44.93Z"/></g></g></g></g></svg>