<svg xmlns="http://www.w3.org/2000/svg" viewBox="0 0 83.99 84"><defs><style>.cls-1{fill:#777;}</style></defs><g id="Layer_2" data-name="Layer 2"><g id="Layer_2-2" data-name="Layer 2"><g id="Why_Choose" data-name="Why Choose"><g id="Right"><path class="cls-1" d="M0,8.78A10.91,10.91,0,0,1,5.16,1.43,10.51,10.51,0,0,1,20.87,9.54,22.22,22.22,0,0,1,19,19.26,55.91,55.91,0,0,1,13,30.57a2.91,2.91,0,0,1-5,0C4.38,25,1.23,19.29.06,12.7A1.66,1.66,0,0,0,0,12.54Zm18.31,2a7.24,7.24,0,0,0-.14-1.54A7.86,7.86,0,0,0,3,8.09a10.66,10.66,0,0,0,.11,6.13C4.44,19.55,7.1,24.28,10,28.9c.44.69.73.28,1-.15a62.54,62.54,0,0,0,5-9A25.66,25.66,0,0,0,18.31,10.73ZM74.41,84A3.72,3.72,0,0,0,76,82.75c.78-1.26,1.58-2.49,2.33-3.76a1.28,1.28,0,0,0-.41-2c-.71-.4-1.34-.19-1.84.62-.67,1.06-1.32,2.14-2,3.2-.48.74-.65.72-1.13,0a68.4,68.4,0,0,1-3.52-6.1c-1.73-3.47-3.33-7-3.74-10.94a7.63,7.63,0,0,1,3.57-7.73,7.42,7.42,0,0,1,8.5,0c3.21,2.08,4,5.2,3.42,8.81a29.6,29.6,0,0,1-2,6.57c-.4,1-.19,1.66.58,2s1.43,0,1.87-1A36,36,0,0,0,83,68.64a17.17,17.17,0,0,0,.78-8.07,10.51,10.51,0,0,0-20.59-.08,16.24,16.24,0,0,0,.78,8,56,56,0,0,0,6.43,13.31A4.93,4.93,0,0,0,72.6,84ZM0,61.71A2.72,2.72,0,0,0,.25,62a1.3,1.3,0,0,0,1.84.12,1.32,1.32,0,0,0,.09-1.84,1.25,1.25,0,0,0-1.82-.08c-.13.1-.24.22-.36.33ZM35.52,35.93H45.1a2.39,2.39,0,0,1,2.72,2.48c0,.33,0,.65,0,1,0,5.87,0,11.74,0,17.61a10,10,0,0,1-.06,1.22,2.38,2.38,0,0,1-2.53,2.35h-19a7.42,7.42,0,0,1-.82,0,2.31,2.31,0,0,1-2.22-2.46q0-9.83,0-19.65a2.27,2.27,0,0,1,2.56-2.51ZM25.79,48.27c0,2.92,0,5.85,0,8.77,0,.62.16.87.83.87q8.88,0,17.78,0c.6,0,.8-.2.8-.81q0-8.85,0-17.7c0-.62-.24-.81-.83-.79-1,0-1.91,0-2.86,0s-1,.29-1,1c0,2.13,0,4.26,0,6.39,0,1.17-.49,1.63-1.66,1.64H32.45c-1.57,0-2-.39-2-2,0-2.08,0-4.15,0-6.23,0-.64-.23-.88-.86-.86-1,0-2,0-2.95,0-.68,0-.9.23-.89.91C25.81,42.43,25.79,45.35,25.79,48.27Zm12-6.39c0-.84,0-1.69,0-2.53,0-.51-.18-.75-.71-.74-1.09,0-2.18,0-3.27,0-.47,0-.69.17-.69.67,0,1.72,0,3.43,0,5.15,0,.48.17.69.67.68,1.08,0,2.17,0,3.26,0,.59,0,.76-.23.74-.78C37.8,43.52,37.82,42.7,37.82,41.88ZM56.41,24.05a11.73,11.73,0,0,1,2.36.18,11.44,11.44,0,0,1-.46,22.54,49,49,0,0,1-5.81.14c-1.07,0-1.61.45-1.63,1.31s.54,1.37,1.58,1.36c1.8,0,3.6.06,5.4-.09a14.09,14.09,0,0,0-1.28-28.13H22.74a4.49,4.49,0,0,0-.9.05,1.25,1.25,0,0,0-1,1.29,1.2,1.2,0,0,0,1,1.28A5.35,5.35,0,0,0,22.9,24H56.41Zm11.87,38.8a5.22,5.22,0,1,1,5.17,5.27A5.24,5.24,0,0,1,68.28,62.85Zm7.76,0a2.48,2.48,0,0,0-2.58-2.58,2.59,2.59,0,0,0-2.59,2.62,2.63,2.63,0,0,0,2.58,2.55A2.53,2.53,0,0,0,76,62.85ZM19.83,48.21a1.32,1.32,0,0,0-2.63,0,1.32,1.32,0,0,0,2.63,0ZM13.64,47a1.34,1.34,0,0,0-1.35,1.27A1.31,1.31,0,1,0,13.64,47ZM8.91,48.14a1.39,1.39,0,0,0-1.36,1.27,1.36,1.36,0,0,0,1.27,1.34,1.33,1.33,0,0,0,1.35-1.25A1.38,1.38,0,0,0,8.91,48.14Zm-5.65,22a1.35,1.35,0,0,0,1.29,1.32,1.29,1.29,0,1,0,.06-2.57A1.34,1.34,0,0,0,3.26,70.14Zm9.91,3.06a1.36,1.36,0,0,0-1.32,1.29,1.35,1.35,0,0,0,1.27,1.33,1.4,1.4,0,0,0,1.33-1.3A1.35,1.35,0,0,0,13.17,73.2ZM.94,56.4a1.21,1.21,0,0,0,1.23,1.26,1.28,1.28,0,1,0,.05-2.55A1.23,1.23,0,0,0,.94,56.4ZM8.4,71.85a1.31,1.31,0,0,0-1.23,1.29,1.28,1.28,0,1,0,2.55,0A1.3,1.3,0,0,0,8.4,71.85ZM4.88,51a1.28,1.28,0,1,0,0,2.56,1.28,1.28,0,1,0,0-2.56ZM.77,66A1.33,1.33,0,0,0,2.09,67.3,1.31,1.31,0,0,0,3.33,66a1.29,1.29,0,0,0-1.28-1.33A1.29,1.29,0,0,0,.77,66Zm16,8.53A1.28,1.28,0,0,0,18,75.85a1.28,1.28,0,1,0,.07-2.55A1.27,1.27,0,0,0,16.76,74.54Zm4.91,0a1.29,1.29,0,0,0,1.26,1.32A1.28,1.28,0,1,0,23,73.3,1.28,1.28,0,0,0,21.67,74.53Zm6.22-1.23a1.28,1.28,0,1,0,0,2.55,1.31,1.31,0,0,0,1.31-1.28A1.29,1.29,0,0,0,27.89,73.3Zm3.61,1.28a1.31,1.31,0,1,0,1.31-1.28A1.29,1.29,0,0,0,31.5,74.58Zm7.53,0a1.3,1.3,0,0,0-1.35-1.23,1.27,1.27,0,0,0-1.26,1.32A1.31,1.31,0,0,0,39,74.53Zm2.31,0a1.28,1.28,0,0,0,1.31,1.27,1.28,1.28,0,1,0,0-2.55A1.27,1.27,0,0,0,41.34,74.58Zm4.92,0a1.27,1.27,0,0,0,1.32,1.25,1.28,1.28,0,1,0,0-2.55A1.27,1.27,0,0,0,46.26,74.6Zm7.52-.06a1.3,1.3,0,0,0-1.34-1.24,1.28,1.28,0,1,0,.07,2.55A1.31,1.31,0,0,0,53.78,74.54Zm2.31,0a1.28,1.28,0,0,0,1.29,1.28,1.28,1.28,0,1,0,0-2.55A1.27,1.27,0,0,0,56.09,74.57ZM62.3,73.3a1.28,1.28,0,1,0,0,2.55,1.28,1.28,0,1,0,0-2.55ZM10.88,5.48A1.4,1.4,0,0,0,9.16,6.7c-.07.79.46,1.33,1.42,1.45a3.16,3.16,0,0,1,.32,0A2.63,2.63,0,0,1,13,10.81a2.67,2.67,0,0,1-2.39,2.5,2.56,2.56,0,0,1-2.74-2.05,8.74,8.74,0,0,0-.17-.89,1.22,1.22,0,0,0-1.4-.88,1.13,1.13,0,0,0-1.13,1.17,3.79,3.79,0,0,0,0,.89A5.33,5.33,0,0,0,10.63,16a5.27,5.27,0,0,0,.25-10.5Z"/></g></g></g></g></svg>