<svg xmlns="http://www.w3.org/2000/svg" viewBox="0 0 87.42 84"><defs><style>.cls-1{fill:#777;}</style></defs><g id="Layer_2" data-name="Layer 2"><g id="Layer_2-2" data-name="Layer 2"><g id="Why_Choose" data-name="Why Choose"><g id="Right"><path class="cls-1" d="M87.42,53c-.22,1.89-.42,3.78-.64,5.67a72,72,0,0,1-1.89,10.72,10.19,10.19,0,0,1-1.21,2.91,2.19,2.19,0,0,1-2.22,1.1,9.39,9.39,0,0,1-2.58-.52,1.74,1.74,0,0,0-2.11.45c-2.94,2.76-6,5.46-8.89,8.22-2.76,2.58-5.82,3-9.37,1.86a156.74,156.74,0,0,0-18.77-5.33A13.58,13.58,0,0,0,35.92,78a25.88,25.88,0,0,1-8.55-.59,8.92,8.92,0,0,1-4.25-2.23c-.24-.24-.57-.47-.66-.77C22,72.92,20.88,73,19.64,73c-5.23,0-10.46,0-15.7,0C1.35,73,0,71.63,0,69V44.21C0,41.34,1.35,40,4.25,40H34.36a8.94,8.94,0,0,1,1.27.1,3.21,3.21,0,0,1,2.68,2.11c.22.58.43.57.9.27,1-.67,2.1-1.25,3.11-1.94a28.51,28.51,0,0,1,7.14-3.17A2,2,0,0,0,50.88,36c.23-.79.54-1.55.84-2.32a.68.68,0,0,0-.21-.9c-3.11-2.47-4.33-5.95-5.1-9.66a46.23,46.23,0,0,1-.7-7,4.35,4.35,0,0,0-1.26,1.66,2.53,2.53,0,0,1-.67,1,1.19,1.19,0,0,1-1.5.08,1.16,1.16,0,0,1-.56-1.4A6.78,6.78,0,0,1,45.45,13a1.62,1.62,0,0,0,1-1.06,24.87,24.87,0,0,1,4-7.36C53.46.83,57.42-.35,62,.09a13.49,13.49,0,0,1,5.67,1.7c3.26,1.92,4.85,4.92,5.44,8.54a22.49,22.49,0,0,1,0,6.45A2,2,0,0,0,73.29,18c1,2.06.55,3.91-.81,5.62a3.17,3.17,0,0,1-.58.63,12.07,12.07,0,0,0-3.65,4.49,2.77,2.77,0,0,1-.59.84c-1.13,1-1,2-.71,3.4a5.45,5.45,0,0,0,3.18,3.92,117.52,117.52,0,0,1,13.93,8.43c1.53,1.07,3,2.19,3.36,4.2Zm-48.8,3.09c0,3.07,0,6.14,0,9.21,0,.75.25,1,1,1.15q9.3,1.53,18.57,3.11c2.87.49,3.25.34,4.78-2.15.37-.6.71-1.23,1-1.86a64.69,64.69,0,0,0,3.42-8.26c.35-1,.69-2,1.08-3.06a1.32,1.32,0,1,1,2.48.88c0,.19-.12.38-.19.57-.88,2.58-1.77,5.16-2.84,7.67-.21.5-.19.81.32,1.13A81.72,81.72,0,0,0,76.43,69a19.74,19.74,0,0,0,4.08,1.49.84.84,0,0,0,1.15-.64,30.19,30.19,0,0,0,1.26-5c.83-4.51,1.22-9.06,1.69-13.61a3.29,3.29,0,0,0-1.45-3.24c-3.12-2.26-6.39-4.26-9.7-6.21-.56-.33-.75,0-1,.37l-4.26,6.59c-.73,1.11-1.25,1.25-2.42.65-1.7-.86-3.41-1.71-5.09-2.6-.54-.29-.84-.25-1.14.32-.53,1-1.11,2-1.68,3-.69,1.21-1.37,2.42-2.08,3.62a1.2,1.2,0,0,1-1.25.73,1.39,1.39,0,0,1-1.15-1c-.12-.38-.23-.76-.34-1.15-.46-1.73-1-3.45-1.38-5.19-.18-.76-.45-.78-1-.29-.75.7-1.53,1.37-2.31,2-1.5,1.26-2.63.85-3-1.09-.28-1.51-.59-3-.83-4.52-.11-.71-.39-.71-.9-.38-1.39.88-2.78,1.77-4.2,2.61a1.59,1.59,0,0,0-.88,1.58C38.64,50.09,38.62,53.07,38.62,56.06ZM31,73c-1.85,0-3.69,0-5.54,0-.21,0-.52-.13-.6.16s.21.38.39.51a8.45,8.45,0,0,0,3.43,1.43,31.86,31.86,0,0,0,8.5.28,13.36,13.36,0,0,1,3.63.35,181.81,181.81,0,0,1,19,5.39c1.85.61,3.72.66,5.24-.7,3.19-2.83,6.29-5.76,9.43-8.64.4-.37.36-.54-.12-.78a62.35,62.35,0,0,1-7.1-4.07c-.64-.43-.91-.26-1.21.35a14.36,14.36,0,0,1-2.27,3.39,4.63,4.63,0,0,1-4.43,1.8c-6.27-1.08-12.55-2.08-18.81-3.17a62.37,62.37,0,0,0-8.41-.61.86.86,0,0,0-.88.39.76.76,0,0,0,0,.81,1.17,1.17,0,0,0,1.06.43h4c1.06,0,1.62.47,1.63,1.31S37.39,73,36.37,73ZM14.19,56.63c0-4.29,0-8.58,0-12.87,0-.76-.22-1.06-1-1-3.07,0-6.14,0-9.2,0-1.18,0-1.36.17-1.36,1.32V68.93c0,1.14.25,1.38,1.43,1.38H13c1.19,0,1.19,0,1.19-1.16C14.2,65,14.19,60.81,14.19,56.63Zm10.13-.16c0,4.29,0,8.59,0,12.88,0,.74.2,1,1,1s1.7,0,2.56,0c.46,0,.62-.12.6-.64A3.51,3.51,0,0,1,32.3,66c.85,0,1.71,0,2.55.08s1-.26,1-1c0-7,0-14,0-21,0-1.19-.17-1.35-1.41-1.35-3,0-6,0-9,0-.88,0-1.11.29-1.1,1.13C24.34,48.05,24.32,52.26,24.32,56.47ZM58.09,31.93a7,7,0,0,0,4-.87A12.6,12.6,0,0,0,67.25,25a2.76,2.76,0,0,1,1.16-1.3A5.56,5.56,0,0,0,71,20.79c.34-1,0-1.37-1-1.4-4.52-.17-9-.18-13.56-.14a2.83,2.83,0,0,1-2.06-.79,13.13,13.13,0,0,0-5-3c-.94-.27-1-.18-1.07.77a24.13,24.13,0,0,0,.18,3.4,20.43,20.43,0,0,0,2.21,8.16A7.28,7.28,0,0,0,58.09,31.93ZM70.61,13.62a13.6,13.6,0,0,0-.14-3.06,8.67,8.67,0,0,0-7-7.56,17.69,17.69,0,0,0-4-.32,8.06,8.06,0,0,0-5.65,2.23,17.12,17.12,0,0,0-3.73,5c-.14.26-.47.56-.24.83s.53,0,.79-.09c5.23-1.33,9.79-.27,13.59,3.68,1.11,2.28,3.11,2.48,5.29,2.24h.08c.67.1,1-.26,1-.86S70.61,14.33,70.61,13.62ZM21.52,56.47V43.93c0-1.2,0-1.2-1.16-1.21H18.14c-1.14,0-1.15,0-1.15,1.13V59.12c0,3.44,0,6.88,0,10.32,0,.65.17.93.87.89a19.38,19.38,0,0,1,2.64,0c.84.07,1.05-.27,1.05-1.07C21.5,65,21.52,60.73,21.52,56.47ZM55.2,49.7c.4-.7.69-1.21,1-1.72a37.13,37.13,0,0,1,2.57-4.31c1.41-1.81,3-3.46,4.59-5.15,2-2.13,2-2.12,1-4.86l0-.08c-.08-.48-.32-.53-.72-.3A12.84,12.84,0,0,1,56,34.58c-1.66-.16-1.58-.15-2.26,1.38a7,7,0,0,0-.57,4.52c.14.61.12,1.25.21,1.86A69.64,69.64,0,0,0,55.2,49.7Zm11.15-3c.24,0,.34-.2.45-.36,1.18-1.88,2.35-3.75,3.54-5.62.22-.34.18-.55-.18-.74-.8-.43-1.6-.86-2.38-1.33a.74.74,0,0,0-1.1.17q-2.25,2.55-4.55,5.06c-.33.36-.31.53.13.74,1.24.62,2.47,1.28,3.7,1.91A3.29,3.29,0,0,0,66.35,46.71ZM62.4,16.57C60,13.21,55,12.12,51.55,13.36a11,11,0,0,1,3.07,1.86,5.09,5.09,0,0,0,4.25,1.37C60,16.49,61.16,16.57,62.4,16.57ZM47.93,45.71l2.48-2.15a.74.74,0,0,0,.27-.68c-.07-.79-.15-1.59-.24-2.37,0-.39-.21-.56-.63-.39-.77.3-1.55.58-2.32.86-.29.11-.5.27-.42.63C47.35,42.93,47.62,44.25,47.93,45.71Zm6.69,16.06a1.23,1.23,0,0,0-1.17-1,1.16,1.16,0,0,0-1.28.78A3.78,3.78,0,0,0,52,63.76a1.2,1.2,0,0,0,1,.94,1.27,1.27,0,0,0,1.27-.49,2.17,2.17,0,0,0,.44-1.52A5.75,5.75,0,0,0,54.62,61.77ZM52.55,58a1.35,1.35,0,0,0,1.28,1.49,1.36,1.36,0,0,0,1.36-1.35,6.72,6.72,0,0,0,0-1.27A1.29,1.29,0,0,0,54,55.56a1.39,1.39,0,0,0-1.43,1.18,6,6,0,0,0,0,.67Z"/></g></g></g></g></svg>